# xmcd CD database file
#
# Track frame offsets:
#	182
#	14622
#	47852
#	64427
#	104792
#	121157
#	141820
#	161107
#	177590
#	199902
#
# Disc length: 2953 seconds
#
# Revision: 0
# Processed by: cddbd v1.5PL3 Copyright (c) Steve Scherf et al.
# Submitted via: CDex 1.50
#
DISCID=9e0b870a
DTITLE=Johnny B. Moore - Lonesome Blues
DYEAR=1900
DGENRE=Blues
TTITLE0=Knockin At Your Door
TTITLE1=Lonesome Blues
TTITLE2=No Good Woman Blues
TTITLE3=Blues Medley
TTITLE4=I'm Gonna Miss You
TTITLE5=Mean Mistreater
TTITLE6=Evening Sun
TTITLE7=Sacrifice
TTITLE8=Pretty Mama
TTITLE9=Upside The Wall
EXTD=
EXTT0=
EXTT1=
EXTT2=
EXTT3=
EXTT4=
EXTT5=
EXTT6=
EXTT7=
EXTT8=
EXTT9=
PLAYORDER=
